#!OML:ASF F:\VICON\USERDATA\INSTALL\rory3\rory3.ASF
:FULLY-SPECIFIED
:DEGREES
324
root -4.65053 17.8638 9.10859 -5.78999 -12.9488 1.28313
lowerback 12.6165 1.44143 2.47533
upperback 1.58105 2.25439 0.204514
thorax -5.32129 1.05651 -1.56208
lowerneck -17.6597 3.22988 -8.79063
upperneck 40.4609 6.62074 4.23212
head 17.3716 1.9084 4.76672
rclavicle -4.99695e-014 2.78299e-015
rhumerus -34.3964 -12.2898 -75.3012
rradius 34.4642
rwrist 4.07874
rhand -18.1584 9.44326
rfingers 7.12502
rthumb 8.11744 -20.3808
lclavicle -4.99695e-014 2.78299e-015
lhumerus -35.5967 19.6439 74.6956
lradius 31.2469
lwrist -6.17526
lhand -21.2018 27.5627
lfingers 7.12502
lthumb 5.1795 57.4794
rfemur 1.17919 -1.32677 14.4519
rtibia 28.7022
rfoot -14.1218 -19.9509
rtoes 3.40027
lfemur -6.41686 -1.12161 -4.65213
ltibia 24.0773
lfoot 5.75507 7.57928
ltoes -2.50168
325
root -4.55532 17.8563 9.15419 -5.71955 -12.6186 1.15743
lowerback 12.6357 1.43265 2.59057
upperback 1.52781 2.26368 0.257996
thorax -5.38547 1.05774 -1.57413
lowerneck -17.8177 3.20974 -8.68338
upperneck 40.6491 6.60146 4.19386
head 17.5289 1.89783 4.75008
rclavicle -2.43511e-015 1.31198e-014
rhumerus -34.6205 -12.4166 -75.0901
rradius 34.3717
rwrist 4.20217
rhand -17.9067 9.41653
rfingers 7.12502
rthumb 8.36038 -20.398
lclavicle -2.43511e-015 1.31198e-014
lhumerus -35.5153 19.5605 74.8747
lradius 31.1144
lwrist -6.31197
lhand -21.2488 27.1795
lfingers 7.12502
lthumb 5.13408 57.0973
rfemur 1.18767 -1.21182 14.2432
rtibia 28.8948
rfoot -14.1396 -20.1287
rtoes 3.61381
lfemur -6.23056 -1.33041 -4.624
ltibia 24.273
lfoot 6.08169 6.44748
ltoes -2.92892
326
root -4.44298 17.863 9.19531 -5.14256 -11.6669 3.44817
lowerback 11.6803 1.47771 0.45753
upperback 1.1927 1.99256 -0.395154
thorax -5.26851 0.964698 -0.989551
lowerneck -17.7385 3.17421 -8.6811
upperneck 40.7192 6.50068 4.2978
head 17.5508 1.87148 4.78175
rclavicle 2.24627e-014 -6.75868e-015
rhumerus -34.9798 -12.4849 -74.8719
rradius 34.387
rwrist 4.12022
rhand -17.8913 9.48675
rfingers 7.12502
rthumb 8.37523 -20.3272
lclavicle 2.24627e-014 -6.75868e-015
lhumerus -35.4087 19.4113 75.0801
lradius 30.9493
lwrist -6.48059
lhand -21.4559 26.5247
lfingers 7.12502
lthumb 4.9342 56.4473
rfemur 0.110762 -2.14615 11.0157
rtibia 29.2919
rfoot -14.059 -19.4947
rtoes 2.73692
lfemur -7.09814 -2.03767 -7.49972
ltibia 24.2815
lfoot 7.31094 5.31454
ltoes -1.4475
327
root -4.33451 17.8444 9.25048 -5.17181 -11.2394 3.51479
lowerback 11.5884 1.42725 0.476333
upperback 1.23638 1.92793 -0.394413
thorax -5.17201 0.933467 -0.985472
lowerneck -17.668 3.17021 -8.82155
upperneck 40.6628 6.47012 4.46334
head 17.4852 1.8693 4.86903
rclavicle 1.40392e-014 1.07344e-014
rhumerus -35.1465 -12.5016 -74.7027
rradius 34.3503
rwrist 4.16827
rhand -17.8498 9.40885
rfingers 7.12502
rthumb 8.41534 -20.4035
lclavicle 1.40392e-014 1.07344e-014
lhumerus -35.2374 19.5005 75.2957
lradius 30.8437
lwrist -6.87008
lhand -21.2467 26.231
lfingers 7.12502
lthumb 5.13611 56.1487
rfemur 0.0838229 -2.1913 10.4543
rtibia 29.833
rfoot -14.005 -19.493
rtoes 1.55698
lfemur -6.60121 -2.42744 -7.79225
ltibia 24.0719
lfoot 6.40682 4.16354
ltoes -10.3606
328
root -4.22553 17.8238 9.30197 -5.14167 -10.9673 3.37302
lowerback 11.5648 1.41931 0.650805
upperback 1.23777 1.94267 -0.340689
thorax -5.15324 0.937854 -1.02909
lowerneck -17.6108 3.18414 -8.79862
upperneck 40.6247 6.45896 4.50882
head 17.4469 1.88065 4.87873
rclavicle 3.91854e-014 -6.75868e-015
rhumerus -35.1174 -12.5686 -74.5345
rradius 33.9428
rwrist 4.2313
rhand -17.839 9.39162
rfingers 7.12502
rthumb 8.42573 -20.4203
lclavicle 3.91854e-014 -6.75868e-015
lhumerus -35.091 19.5533 75.515
lradius 30.7844
lwrist -7.19446
lhand -21.076 26.4455
lfingers 7.12502
lthumb 5.30101 56.3592
rfemur -0.0577404 -2.07795 10.171
rtibia 30.4712
rfoot -13.8495 -19.5921
rtoes 0.232663
lfemur -6.01719 -2.85039 -7.83692
ltibia 23.6425
lfoot 5.3743 3.6997
ltoes -17.5369
